<svg width="100" height="100" viewBox="0 0 100 100" fill="none" xmlns="http://www.w3.org/2000/svg">
<path d="M81.6667 87.5L55.4167 61.25C53.3333 62.9167 50.9375 64.2361 48.2292 65.2083C45.5208 66.1806 42.6389 66.6667 39.5833 66.6667C32.0139 66.6667 25.6076 64.0451 20.3646 58.8021C15.1215 53.559 12.5 47.1528 12.5 39.5833C12.5 32.0139 15.1215 25.6076 20.3646 20.3646C25.6076 15.1215 32.0139 12.5 39.5833 12.5C47.1528 12.5 53.559 15.1215 58.8021 20.3646C64.0451 25.6076 66.6667 32.0139 66.6667 39.5833C66.6667 42.6389 66.1806 45.5208 65.2083 48.2292C64.2361 50.9375 62.9167 53.3333 61.25 55.4167L87.5 81.6667L81.6667 87.5ZM39.5833 58.3333C44.7917 58.3333 49.2188 56.5104 52.8646 52.8646C56.5104 49.2188 58.3333 44.7917 58.3333 39.5833C58.3333 34.375 56.5104 29.9479 52.8646 26.3021C49.2188 22.6562 44.7917 20.8333 39.5833 20.8333C34.375 20.8333 29.9479 22.6562 26.3021 26.3021C22.6562 29.9479 20.8333 34.375 20.8333 39.5833C20.8333 44.7917 22.6562 49.2188 26.3021 52.8646C29.9479 56.5104 34.375 58.3333 39.5833 58.3333Z" fill="#1D1B20"/>
</svg>
